<svg xmlns="http://www.w3.org/2000/svg" xmlns:xlink="http://www.w3.org/1999/xlink" viewBox="0 0 532.26 123.63"><defs><style>.cls-1{fill:none;}.cls-2{isolation:isolate;}.cls-3{clip-path:url(#clip-path);}.cls-4{mix-blend-mode:multiply;}.cls-5{clip-path:url(#clip-path-2);}.cls-6{fill:url(#radial-gradient);}.cls-7{clip-path:url(#clip-path-3);}.cls-8{fill:url(#radial-gradient-2);}.cls-9{clip-path:url(#clip-path-4);}.cls-10{fill:url(#radial-gradient-3);}.cls-11{clip-path:url(#clip-path-5);}.cls-12{fill:url(#radial-gradient-4);}</style><clipPath id="clip-path"><rect class="cls-1" width="532.26" height="123.63"/></clipPath><clipPath id="clip-path-2"><path class="cls-1" d="M19.68,120.75a110.7,110.7,0,0,0,166.13,95.87,110.69,110.69,0,0,1,0-191.76,110.75,110.75,0,0,0-166.13,95.9"/></clipPath><radialGradient id="radial-gradient" cx="-335.69" cy="352.1" r="8.03" gradientTransform="matrix(-17.05, 0, 0, 17.05, -5619.44, -5881.12)" gradientUnits="userSpaceOnUse"><stop offset="0" stop-color="#fffffe"/><stop offset="1" stop-color="#c3002f"/></radialGradient><clipPath id="clip-path-3"><path class="cls-1" d="M152.65,120.75a110.68,110.68,0,0,0,166.1,95.87,110.71,110.71,0,0,1,0-191.76,110.73,110.73,0,0,0-166.1,95.9"/></clipPath><radialGradient id="radial-gradient-2" cx="-339.14" cy="350.4" r="5.9" gradientTransform="matrix(-23.22, 0, 0, 23.22, -7639.21, -8015.56)" gradientUnits="userSpaceOnUse"><stop offset="0" stop-color="#fffffe"/><stop offset="1" stop-color="#77bc1f"/></radialGradient><clipPath id="clip-path-4"><path class="cls-1" d="M286.16,120.75a110.69,110.69,0,0,0,166.11,95.87,110.69,110.69,0,0,1,0-191.76,110.74,110.74,0,0,0-166.11,95.9"/></clipPath><radialGradient id="radial-gradient-3" cx="-341.16" cy="354.06" r="5.99" gradientTransform="matrix(-22.86, 0, 0, 22.86, -7430.72, -7974.2)" gradientUnits="userSpaceOnUse"><stop offset="0" stop-color="#fffffe"/><stop offset="1" stop-color="#007934"/></radialGradient><clipPath id="clip-path-5"><path class="cls-1" d="M419.7,120.33A110.74,110.74,0,1,0,530.43,9.59,110.75,110.75,0,0,0,419.7,120.33"/></clipPath><radialGradient id="radial-gradient-4" cx="-308.67" cy="325.15" r="5.17" gradientTransform="matrix(21.43, 0, 0, -21.43, 7144.47, 7087.62)" gradientUnits="userSpaceOnUse"><stop offset="0" stop-color="#fffffe"/><stop offset="1" stop-color="#8e9090"/></radialGradient></defs><title>Artboard 1</title><g class="cls-2"><g id="Layer_1" data-name="Layer 1"><g class="cls-3"><g class="cls-4"><g class="cls-5"><rect class="cls-6" x="-35.04" y="-15.25" width="275.57" height="272.02" transform="translate(-55.71 115.21) rotate(-47.6)"/></g><g class="cls-7"><rect class="cls-8" x="98.67" y="-16.27" width="274.06" height="274.06" transform="translate(-16.35 202.04) rotate(-45)"/></g><g class="cls-9"><rect class="cls-10" x="231.37" y="-15.11" width="275.7" height="271.72" transform="translate(32.12 313.81) rotate(-47.91)"/></g><g class="cls-11"><rect class="cls-12" x="419.7" y="9.59" width="221.47" height="221.49"/></g></g></g></g></g></svg>